<svg width="36" height="36" xmlns="http://www.w3.org/2000/svg">
   <style>path{fill:black}@media (prefers-color-scheme:dark){path{fill:white}}</style>
   <path id="logo-svg" vector-effect="non-scaling-stroke" fillRule="evenodd" clipRule="evenodd"
      d="m28.4,28.05424l-15.90509,0q-1.24475,0 -2.26475,-0.62237q-1.02,-0.62237 -1.62509,-1.62509a4.23963,4.23963 0 0 1 -0.60393,-2.13105a5.05275,5.05275 0 0 1 -0.00115,-0.11641l0,-7.39932l16.63119,0l0,-3.56136q0,-0.34576 -0.24203,-0.60508q-0.24203,-0.25932 -0.5878,-0.25932l-15.80136,0l0,-3.73424l15.90509,0q1.24475,0 2.26475,0.60508q1.02,0.60508 1.62509,1.64237q0.60508,1.03729 0.60508,2.24746l0,15.55933zm-15.80136,-3.73424l12.03255,0l0,-4.6678l-12.89695,0l0,3.80339a0.82464,0.82464 0 0 0 0.24261,0.58837a1.08224,1.08224 0 0 0 0.01671,0.01671a0.90359,0.90359 0 0 0 0.26681,0.18844a0.81197,0.81197 0 0 0 0.33827,0.07088z" />
</svg>
